HIERARCHY
ROOT RootJoint
{
    OFFSET   0.000000   0.000000   0.000000
    CHANNELS 6 Xposition Yposition Zposition Xrotation Yrotation Zrotation
    JOINT pelvis_lowerback
    {
        OFFSET   0.000000   0.093605   0.000000
        CHANNELS 3 Xrotation Yrotation Zrotation
        JOINT lowerback_torso
        {
            OFFSET   0.000000   0.100000   0.000000
            CHANNELS 3 Xrotation Yrotation Zrotation
            JOINT torso_head
            {
                OFFSET   0.000000   0.282350   0.000000
                CHANNELS 3 Xrotation Yrotation Zrotation
                End Site
                {
                    OFFSET   0.000000   0.192650   0.000000
                }
            }
            JOINT rTorso_Clavicle
            {
                OFFSET  -0.001000   0.157500   0.000000
                CHANNELS 3 Xrotation Yrotation Zrotation
                JOINT rShoulder
                {
                    OFFSET  -0.117647   0.000000   0.000000
                    CHANNELS 3 Xrotation Yrotation Zrotation
                    JOINT rElbow
                    {
                        OFFSET  -0.245000   0.000000   0.000000
                        CHANNELS 3 Xrotation Yrotation Zrotation
                        JOINT rWrist
                        {
                            OFFSET  -0.240000   0.000000   0.000000
                            CHANNELS 3 Xrotation Yrotation Zrotation
                            End Site
                            {
                                OFFSET  -0.116353  -0.002500   0.000000
                            }
                        }
                    }
                }
            }
            JOINT lTorso_Clavicle
            {
                OFFSET   0.001000   0.157500   0.000000
                CHANNELS 3 Xrotation Yrotation Zrotation
                JOINT lShoulder
                {
                    OFFSET   0.117647   0.000000   0.000000
                    CHANNELS 3 Xrotation Yrotation Zrotation
                    JOINT lElbow
                    {
                        OFFSET   0.245000   0.000000   0.000000
                        CHANNELS 3 Xrotation Yrotation Zrotation
                        JOINT lWrist
                        {
                            OFFSET   0.240000   0.000000   0.000000
                            CHANNELS 3 Xrotation Yrotation Zrotation
                            End Site
                            {
                                OFFSET   0.116353  -0.002500   0.000000
                            }
                        }
                    }
                }
            }
        }
    }
    JOINT rHip
    {
        OFFSET  -0.100000  -0.051395   0.000000
        CHANNELS 3 Xrotation Yrotation Zrotation
        JOINT rKnee
        {
            OFFSET   0.000000  -0.410000   0.000000
            CHANNELS 3 Xrotation Yrotation Zrotation
            JOINT rAnkle
            {
                OFFSET   0.000000  -0.390000   0.000000
                CHANNELS 3 Xrotation Yrotation Zrotation
                JOINT rToeJoint
                {
                    OFFSET   0.000000  -0.050000   0.130000
                    CHANNELS 3 Xrotation Yrotation Zrotation
                    End Site
                    {
                        OFFSET  -0.010000   0.002000   0.060000
                    }
                }
            }
        }
    }
    JOINT lHip
    {
        OFFSET   0.100000  -0.051395   0.000000
        CHANNELS 3 Xrotation Yrotation Zrotation
        JOINT lKnee
        {
            OFFSET   0.000000  -0.410000   0.000000
            CHANNELS 3 Xrotation Yrotation Zrotation
            JOINT lAnkle
            {
                OFFSET   0.000000  -0.390000   0.000000
                CHANNELS 3 Xrotation Yrotation Zrotation
                JOINT lToeJoint
                {
                    OFFSET   0.000000  -0.050000   0.130000
                    CHANNELS 3 Xrotation Yrotation Zrotation
                    End Site
                    {
                        OFFSET   0.010000   0.002000   0.060000
                    }
                }
            }
        }
    }
}
MOTION
Frames: 5
Frame Time:   0.008333
 -2.577370   0.908154   4.582908  -6.952081   5.660510  -6.095104  23.096989  -0.560096  -5.726578  11.135893  -3.378344  -3.325807   3.120408  -0.814293   0.743793   0.873910   5.632170   4.329832   2.724749   4.763629  29.365899  -0.000620  25.443314   0.001713   3.143029   0.159366   0.142519  -1.669686 -13.787785 -11.776765  -6.598411  -8.041228 -35.351674  -0.003095 -16.375903  -0.002320  -0.434947  -1.451962   3.697538  -9.358394  -8.346140  -3.157575  25.771699   0.002554  -0.000633  -7.785192 -11.730049   4.501862  -3.630932   0.003756  -0.000653   1.896291   4.389819  13.118334  23.008530  -0.001162   0.001682 -18.610304  -1.193368  -3.019497  -0.180901   0.000070   0.000080
 -2.578754   0.907033   4.584684  -6.812200   5.747669  -5.868548  23.097068  -0.502220  -5.708276  11.155528  -3.437905  -3.218296   3.077212  -0.798602   0.767127   0.867466   5.582400   4.550627   2.799296   4.726702  29.147619  -0.001416  25.142813   0.001961   3.225927   0.209492  -0.057688  -1.705159 -13.876072 -11.904316  -6.510417  -8.202193 -35.295763  -0.002528 -16.437959  -0.001757  -0.441371  -1.534975   3.742419  -9.680774  -8.495979  -3.535048  26.256756   0.002228  -0.001084  -8.090264 -11.830942   4.367310  -3.383098   0.003470  -0.000998   1.706140   4.277347  12.989521  23.358893  -0.001193   0.001516 -18.905074  -1.213315  -3.023670  -0.151439   0.000031   0.000064
 -2.580188   0.905829   4.586673  -6.684228   5.817606  -5.627431  23.082611  -0.445557  -5.693493  11.171736  -3.483147  -3.107755   3.031498  -0.787158   0.783674   0.867961   5.536014   4.797906   2.872888   4.692593  28.972040  -0.002203  24.858194   0.002086   3.304628   0.236801  -0.222639  -1.719104 -13.934974 -12.023690  -6.414778  -8.335387 -35.244250  -0.002083 -16.491451  -0.001331  -0.445467  -1.617661   3.781644  -9.955693  -8.646018  -3.875859  26.749635   0.001761  -0.001452  -8.374656 -11.926225   4.240880  -3.163587   0.003111  -0.001238   1.543984   4.178588  12.849705  23.713232  -0.001246   0.001366 -19.219089  -1.224351  -3.036461  -0.123937   0.000002   0.000051
 -2.581662   0.904568   4.588812  -6.556746   5.878481  -5.370024  23.058767  -0.388432  -5.675345  11.184181  -3.518405  -2.993901   2.985311  -0.777041   0.797582   0.873695   5.490555   5.054732   2.944881   4.660404  28.827553  -0.002910  24.591679   0.002150   3.379495   0.257779  -0.346915  -1.722586 -13.978714 -12.135930  -6.318698  -8.450499 -35.196399  -0.001732 -16.537247  -0.001008  -0.450526  -1.679265   3.816759 -10.193354  -8.788370  -4.183941  27.221495   0.001222  -0.001653  -8.639600 -12.014624   4.122508  -2.960612   0.002724  -0.001377   1.397680   4.090941  12.695940  24.058989  -0.001296   0.001242 -19.539294  -1.233477  -3.057576  -0.098373  -0.000018   0.000041
 -2.583173   0.903266   4.591061  -6.425122   5.933448  -5.096115  23.030021  -0.331726  -5.650581  11.193509  -3.546020  -2.876927   2.939890  -0.767734   0.810064   0.882240   5.447480   5.311516   3.013987   4.630640  28.705524  -0.003509  24.342629   0.002183   3.450941   0.277284  -0.440289  -1.720658 -14.013217 -12.240460  -6.225264  -8.552749 -35.151328  -0.001456 -16.577561  -0.000760  -0.456362  -1.724562   3.849929 -10.402358  -8.922456  -4.461852  27.667079   0.000656  -0.001706  -8.886756 -12.096529   4.011674  -2.773361   0.002329  -0.001432   1.262318   4.012697  12.527221  24.389485  -0.001332   0.001142 -19.859006  -1.242578  -3.084959  -0.074235  -0.000033   0.000033
